<mxfile host="app.diagrams.net" agent="Mozilla/5.0 (X11; Linux x86_64) AppleWebKit/537.36 (KHTML, like Gecko) Chrome/133.0.0.0 Safari/537.36" version="27.0.1">
  <diagram name="Page-1" id="SuP9toZDJDy2TiDfMAzV">
    <mxGraphModel dx="2037" dy="1121" grid="1" gridSize="10" guides="1" tooltips="1" connect="1" arrows="1" fold="1" page="1" pageScale="1" pageWidth="850" pageHeight="1100" math="0" shadow="0">
      <root>
        <mxCell id="0" />
        <mxCell id="1" parent="0" />
        <mxCell id="R47xytBqSI23kSyQV7mt-17" style="edgeStyle=orthogonalEdgeStyle;rounded=0;orthogonalLoop=1;jettySize=auto;html=1;exitX=1;exitY=0.5;exitDx=0;exitDy=0;entryX=0;entryY=0.5;entryDx=0;entryDy=0;" edge="1" parent="1" source="R47xytBqSI23kSyQV7mt-1" target="R47xytBqSI23kSyQV7mt-2">
          <mxGeometry relative="1" as="geometry" />
        </mxCell>
        <mxCell id="R47xytBqSI23kSyQV7mt-19" value="&amp;nbsp;raw&amp;nbsp;" style="edgeLabel;html=1;align=center;verticalAlign=middle;resizable=0;points=[];" vertex="1" connectable="0" parent="R47xytBqSI23kSyQV7mt-17">
          <mxGeometry x="-0.1684" y="-1" relative="1" as="geometry">
            <mxPoint x="-1" y="-1" as="offset" />
          </mxGeometry>
        </mxCell>
        <mxCell id="R47xytBqSI23kSyQV7mt-1" value="Sphere IMU raw&lt;br&gt;500Hz - 1kHz" style="rounded=0;whiteSpace=wrap;html=1;" vertex="1" parent="1">
          <mxGeometry x="40" y="780" width="120" height="30" as="geometry" />
        </mxCell>
        <mxCell id="R47xytBqSI23kSyQV7mt-20" style="edgeStyle=orthogonalEdgeStyle;rounded=0;orthogonalLoop=1;jettySize=auto;html=1;exitX=1;exitY=0.5;exitDx=0;exitDy=0;entryX=0;entryY=0.5;entryDx=0;entryDy=0;" edge="1" parent="1" source="R47xytBqSI23kSyQV7mt-2" target="R47xytBqSI23kSyQV7mt-3">
          <mxGeometry relative="1" as="geometry" />
        </mxCell>
        <mxCell id="R47xytBqSI23kSyQV7mt-21" value="&amp;nbsp;filtered&amp;nbsp;" style="edgeLabel;html=1;align=center;verticalAlign=middle;resizable=0;points=[];" vertex="1" connectable="0" parent="R47xytBqSI23kSyQV7mt-20">
          <mxGeometry x="-0.2667" y="-1" relative="1" as="geometry">
            <mxPoint x="3" y="-1" as="offset" />
          </mxGeometry>
        </mxCell>
        <mxCell id="R47xytBqSI23kSyQV7mt-2" value="Madgwick&lt;br&gt;Filter" style="rhombus;whiteSpace=wrap;html=1;" vertex="1" parent="1">
          <mxGeometry x="210" y="740" width="110" height="110" as="geometry" />
        </mxCell>
        <mxCell id="R47xytBqSI23kSyQV7mt-22" style="edgeStyle=orthogonalEdgeStyle;rounded=0;orthogonalLoop=1;jettySize=auto;html=1;exitX=1;exitY=0.5;exitDx=0;exitDy=0;entryX=0;entryY=0.5;entryDx=0;entryDy=0;" edge="1" parent="1" source="R47xytBqSI23kSyQV7mt-3" target="R47xytBqSI23kSyQV7mt-4">
          <mxGeometry relative="1" as="geometry">
            <Array as="points">
              <mxPoint x="520" y="795" />
              <mxPoint x="520" y="625" />
            </Array>
          </mxGeometry>
        </mxCell>
        <mxCell id="R47xytBqSI23kSyQV7mt-23" value="&amp;nbsp;data&amp;nbsp;" style="edgeLabel;html=1;align=center;verticalAlign=middle;resizable=0;points=[];" vertex="1" connectable="0" parent="R47xytBqSI23kSyQV7mt-22">
          <mxGeometry x="-0.3042" relative="1" as="geometry">
            <mxPoint as="offset" />
          </mxGeometry>
        </mxCell>
        <mxCell id="R47xytBqSI23kSyQV7mt-57" style="edgeStyle=orthogonalEdgeStyle;rounded=0;orthogonalLoop=1;jettySize=auto;html=1;exitX=0.5;exitY=1;exitDx=0;exitDy=0;entryX=0.5;entryY=0;entryDx=0;entryDy=0;" edge="1" parent="1" source="R47xytBqSI23kSyQV7mt-3" target="R47xytBqSI23kSyQV7mt-51">
          <mxGeometry relative="1" as="geometry" />
        </mxCell>
        <mxCell id="R47xytBqSI23kSyQV7mt-86" style="edgeStyle=orthogonalEdgeStyle;rounded=0;orthogonalLoop=1;jettySize=auto;html=1;exitX=1;exitY=0.5;exitDx=0;exitDy=0;entryX=0;entryY=0.5;entryDx=0;entryDy=0;" edge="1" parent="1" source="R47xytBqSI23kSyQV7mt-3" target="R47xytBqSI23kSyQV7mt-83">
          <mxGeometry relative="1" as="geometry" />
        </mxCell>
        <mxCell id="R47xytBqSI23kSyQV7mt-3" value="Extended&lt;br&gt;Kalman&lt;br&gt;Filter" style="rhombus;whiteSpace=wrap;html=1;" vertex="1" parent="1">
          <mxGeometry x="380" y="740" width="110" height="110" as="geometry" />
        </mxCell>
        <mxCell id="R47xytBqSI23kSyQV7mt-27" style="edgeStyle=orthogonalEdgeStyle;rounded=0;orthogonalLoop=1;jettySize=auto;html=1;exitX=1;exitY=0.5;exitDx=0;exitDy=0;entryX=0;entryY=0.5;entryDx=0;entryDy=0;" edge="1" parent="1" source="R47xytBqSI23kSyQV7mt-4" target="R47xytBqSI23kSyQV7mt-5">
          <mxGeometry relative="1" as="geometry">
            <Array as="points">
              <mxPoint x="720" y="625" />
              <mxPoint x="720" y="625" />
            </Array>
          </mxGeometry>
        </mxCell>
        <mxCell id="R47xytBqSI23kSyQV7mt-29" value="&amp;nbsp;TB6612FNG&amp;nbsp;" style="edgeLabel;html=1;align=center;verticalAlign=middle;resizable=0;points=[];" vertex="1" connectable="0" parent="R47xytBqSI23kSyQV7mt-27">
          <mxGeometry x="0.325" y="-2" relative="1" as="geometry">
            <mxPoint x="-32" y="-2" as="offset" />
          </mxGeometry>
        </mxCell>
        <mxCell id="R47xytBqSI23kSyQV7mt-28" style="edgeStyle=orthogonalEdgeStyle;rounded=0;orthogonalLoop=1;jettySize=auto;html=1;exitX=1;exitY=0.5;exitDx=0;exitDy=0;entryX=0;entryY=0.5;entryDx=0;entryDy=0;" edge="1" parent="1" source="R47xytBqSI23kSyQV7mt-83" target="R47xytBqSI23kSyQV7mt-6">
          <mxGeometry relative="1" as="geometry">
            <Array as="points">
              <mxPoint x="690" y="795" />
              <mxPoint x="690" y="795" />
            </Array>
          </mxGeometry>
        </mxCell>
        <mxCell id="R47xytBqSI23kSyQV7mt-30" value="&amp;nbsp;A4988&amp;nbsp;" style="edgeLabel;html=1;align=center;verticalAlign=middle;resizable=0;points=[];" vertex="1" connectable="0" parent="R47xytBqSI23kSyQV7mt-28">
          <mxGeometry x="0.2833" y="-1" relative="1" as="geometry">
            <mxPoint x="-23" y="-1" as="offset" />
          </mxGeometry>
        </mxCell>
        <mxCell id="R47xytBqSI23kSyQV7mt-4" value="PID&lt;br&gt;Base" style="rhombus;whiteSpace=wrap;html=1;" vertex="1" parent="1">
          <mxGeometry x="550" y="570" width="110" height="110" as="geometry" />
        </mxCell>
        <mxCell id="R47xytBqSI23kSyQV7mt-5" value="DC Motors" style="rounded=0;whiteSpace=wrap;html=1;" vertex="1" parent="1">
          <mxGeometry x="795" y="610" width="120" height="30" as="geometry" />
        </mxCell>
        <mxCell id="R47xytBqSI23kSyQV7mt-6" value="Head Stepper" style="rounded=0;whiteSpace=wrap;html=1;" vertex="1" parent="1">
          <mxGeometry x="795" y="775" width="120" height="30" as="geometry" />
        </mxCell>
        <mxCell id="R47xytBqSI23kSyQV7mt-8" value="RPLidar A1&lt;br&gt;8Hz-10Hz" style="rounded=0;whiteSpace=wrap;html=1;" vertex="1" parent="1">
          <mxGeometry x="40" y="170" width="120" height="30" as="geometry" />
        </mxCell>
        <mxCell id="R47xytBqSI23kSyQV7mt-59" style="edgeStyle=orthogonalEdgeStyle;rounded=0;orthogonalLoop=1;jettySize=auto;html=1;exitX=1;exitY=0.5;exitDx=0;exitDy=0;entryX=0;entryY=0.5;entryDx=0;entryDy=0;" edge="1" parent="1" source="R47xytBqSI23kSyQV7mt-9" target="R47xytBqSI23kSyQV7mt-54">
          <mxGeometry relative="1" as="geometry" />
        </mxCell>
        <mxCell id="R47xytBqSI23kSyQV7mt-64" value="" style="edgeStyle=orthogonalEdgeStyle;rounded=0;orthogonalLoop=1;jettySize=auto;html=1;" edge="1" parent="1" source="R47xytBqSI23kSyQV7mt-9" target="R47xytBqSI23kSyQV7mt-40">
          <mxGeometry relative="1" as="geometry" />
        </mxCell>
        <mxCell id="R47xytBqSI23kSyQV7mt-90" style="edgeStyle=orthogonalEdgeStyle;rounded=0;orthogonalLoop=1;jettySize=auto;html=1;exitX=0.5;exitY=1;exitDx=0;exitDy=0;entryX=0;entryY=0.5;entryDx=0;entryDy=0;" edge="1" parent="1" source="R47xytBqSI23kSyQV7mt-9" target="R47xytBqSI23kSyQV7mt-10">
          <mxGeometry relative="1" as="geometry" />
        </mxCell>
        <mxCell id="R47xytBqSI23kSyQV7mt-98" value="&amp;nbsp;map&amp;nbsp;" style="edgeLabel;html=1;align=center;verticalAlign=middle;resizable=0;points=[];" vertex="1" connectable="0" parent="R47xytBqSI23kSyQV7mt-90">
          <mxGeometry x="0.4828" relative="1" as="geometry">
            <mxPoint as="offset" />
          </mxGeometry>
        </mxCell>
        <mxCell id="R47xytBqSI23kSyQV7mt-91" style="edgeStyle=orthogonalEdgeStyle;rounded=0;orthogonalLoop=1;jettySize=auto;html=1;exitX=0.5;exitY=1;exitDx=0;exitDy=0;entryX=0.5;entryY=0;entryDx=0;entryDy=0;" edge="1" parent="1" source="R47xytBqSI23kSyQV7mt-9" target="R47xytBqSI23kSyQV7mt-15">
          <mxGeometry relative="1" as="geometry">
            <mxPoint x="520" y="300" as="targetPoint" />
            <Array as="points">
              <mxPoint x="435" y="185" />
              <mxPoint x="605" y="185" />
            </Array>
          </mxGeometry>
        </mxCell>
        <mxCell id="R47xytBqSI23kSyQV7mt-99" value="occupancy" style="edgeLabel;html=1;align=center;verticalAlign=middle;resizable=0;points=[];" vertex="1" connectable="0" parent="R47xytBqSI23kSyQV7mt-91">
          <mxGeometry x="0.6014" y="-2" relative="1" as="geometry">
            <mxPoint as="offset" />
          </mxGeometry>
        </mxCell>
        <mxCell id="R47xytBqSI23kSyQV7mt-9" value="Cartographer&lt;br&gt;2D/3D" style="rhombus;whiteSpace=wrap;html=1;" vertex="1" parent="1">
          <mxGeometry x="380" y="40" width="110" height="110" as="geometry" />
        </mxCell>
        <mxCell id="R47xytBqSI23kSyQV7mt-10" value="RViz" style="rounded=0;whiteSpace=wrap;html=1;" vertex="1" parent="1">
          <mxGeometry x="795" y="170" width="120" height="30" as="geometry" />
        </mxCell>
        <mxCell id="R47xytBqSI23kSyQV7mt-11" value="Global&lt;br&gt;Navigation&lt;br&gt;navfn" style="rhombus;whiteSpace=wrap;html=1;" vertex="1" parent="1">
          <mxGeometry x="610" y="265" width="110" height="110" as="geometry" />
        </mxCell>
        <mxCell id="R47xytBqSI23kSyQV7mt-12" value="Local&lt;br&gt;Navigation&lt;br&gt;dwa" style="rhombus;whiteSpace=wrap;html=1;" vertex="1" parent="1">
          <mxGeometry x="610" y="385" width="110" height="110" as="geometry" />
        </mxCell>
        <mxCell id="R47xytBqSI23kSyQV7mt-89" style="edgeStyle=orthogonalEdgeStyle;rounded=0;orthogonalLoop=1;jettySize=auto;html=1;exitX=0.5;exitY=1;exitDx=0;exitDy=0;entryX=0.5;entryY=0;entryDx=0;entryDy=0;" edge="1" parent="1" source="R47xytBqSI23kSyQV7mt-15" target="R47xytBqSI23kSyQV7mt-4">
          <mxGeometry relative="1" as="geometry" />
        </mxCell>
        <mxCell id="R47xytBqSI23kSyQV7mt-100" value="cmd_vel" style="edgeLabel;html=1;align=center;verticalAlign=middle;resizable=0;points=[];" vertex="1" connectable="0" parent="R47xytBqSI23kSyQV7mt-89">
          <mxGeometry x="0.0222" y="1" relative="1" as="geometry">
            <mxPoint as="offset" />
          </mxGeometry>
        </mxCell>
        <mxCell id="R47xytBqSI23kSyQV7mt-15" value="move_base" style="rhombus;whiteSpace=wrap;html=1;" vertex="1" parent="1">
          <mxGeometry x="550" y="325" width="110" height="110" as="geometry" />
        </mxCell>
        <mxCell id="R47xytBqSI23kSyQV7mt-35" style="edgeStyle=orthogonalEdgeStyle;rounded=0;orthogonalLoop=1;jettySize=auto;html=1;exitX=1;exitY=0.5;exitDx=0;exitDy=0;entryX=0;entryY=0.5;entryDx=0;entryDy=0;" edge="1" parent="1" source="R47xytBqSI23kSyQV7mt-37" target="R47xytBqSI23kSyQV7mt-40">
          <mxGeometry relative="1" as="geometry" />
        </mxCell>
        <mxCell id="R47xytBqSI23kSyQV7mt-36" value="&amp;nbsp;raw&amp;nbsp;" style="edgeLabel;html=1;align=center;verticalAlign=middle;resizable=0;points=[];" vertex="1" connectable="0" parent="R47xytBqSI23kSyQV7mt-35">
          <mxGeometry x="-0.1684" y="-1" relative="1" as="geometry">
            <mxPoint x="-1" y="-1" as="offset" />
          </mxGeometry>
        </mxCell>
        <mxCell id="R47xytBqSI23kSyQV7mt-37" value="Head IMU raw&lt;br&gt;500Hz - 1kHz" style="rounded=0;whiteSpace=wrap;html=1;" vertex="1" parent="1">
          <mxGeometry x="40" y="80" width="120" height="30" as="geometry" />
        </mxCell>
        <mxCell id="R47xytBqSI23kSyQV7mt-38" style="edgeStyle=orthogonalEdgeStyle;rounded=0;orthogonalLoop=1;jettySize=auto;html=1;exitX=1;exitY=0.5;exitDx=0;exitDy=0;entryX=0;entryY=0.5;entryDx=0;entryDy=0;" edge="1" parent="1" source="R47xytBqSI23kSyQV7mt-40">
          <mxGeometry relative="1" as="geometry">
            <mxPoint x="380" y="95" as="targetPoint" />
          </mxGeometry>
        </mxCell>
        <mxCell id="R47xytBqSI23kSyQV7mt-39" value="&amp;nbsp;filtered&amp;nbsp;" style="edgeLabel;html=1;align=center;verticalAlign=middle;resizable=0;points=[];" vertex="1" connectable="0" parent="R47xytBqSI23kSyQV7mt-38">
          <mxGeometry x="-0.2667" y="-1" relative="1" as="geometry">
            <mxPoint x="3" y="-1" as="offset" />
          </mxGeometry>
        </mxCell>
        <mxCell id="R47xytBqSI23kSyQV7mt-40" value="Madgwick&lt;br&gt;Filter" style="rhombus;whiteSpace=wrap;html=1;" vertex="1" parent="1">
          <mxGeometry x="210" y="40" width="110" height="110" as="geometry" />
        </mxCell>
        <mxCell id="R47xytBqSI23kSyQV7mt-49" value="map&amp;nbsp;&lt;span style=&quot;font-size: 14px;&quot;&gt;↦&lt;/span&gt;&amp;nbsp;odom&amp;nbsp;&lt;span style=&quot;font-size: 14px;&quot;&gt;↦&lt;/span&gt;&amp;nbsp;base_link&amp;nbsp;&lt;span style=&quot;font-size: 14px;&quot;&gt;↦&lt;/span&gt;&amp;nbsp;head_joint&amp;nbsp;&lt;span style=&quot;font-size: 14px;&quot;&gt;↦&lt;/span&gt;&amp;nbsp;head_link&amp;nbsp;&lt;span style=&quot;font-size: 14px;&quot;&gt;↦&lt;/span&gt;&amp;nbsp;laser_link + imu_link" style="rounded=1;whiteSpace=wrap;html=1;glass=0;shadow=0;arcSize=48;imageWidth=24;" vertex="1" parent="1">
          <mxGeometry x="160" y="970" width="550" height="60" as="geometry" />
        </mxCell>
        <mxCell id="R47xytBqSI23kSyQV7mt-50" value="head_joint&amp;nbsp;&lt;span style=&quot;font-size: 14px;&quot;&gt;↦&lt;/span&gt;&amp;nbsp;head_link" style="rounded=1;whiteSpace=wrap;html=1;glass=0;shadow=0;arcSize=48;imageWidth=24;" vertex="1" parent="1">
          <mxGeometry x="525" y="880" width="160" height="60" as="geometry" />
        </mxCell>
        <mxCell id="R47xytBqSI23kSyQV7mt-51" value="odom&amp;nbsp;&lt;font style=&quot;font-size: 14px;&quot;&gt;↦&lt;/font&gt;&amp;nbsp;base_link" style="rounded=1;whiteSpace=wrap;html=1;glass=0;shadow=0;arcSize=48;imageWidth=24;" vertex="1" parent="1">
          <mxGeometry x="355" y="880" width="160" height="60" as="geometry" />
        </mxCell>
        <mxCell id="R47xytBqSI23kSyQV7mt-52" value="head_link&amp;nbsp;&lt;span style=&quot;font-size: 14px;&quot;&gt;↦&lt;/span&gt;&amp;nbsp;imu_link" style="rounded=1;whiteSpace=wrap;html=1;glass=0;shadow=0;arcSize=48;imageWidth=24;" vertex="1" parent="1">
          <mxGeometry x="185" y="550" width="160" height="60" as="geometry" />
        </mxCell>
        <mxCell id="R47xytBqSI23kSyQV7mt-53" value="base_link&amp;nbsp;&lt;span style=&quot;font-size: 14px;&quot;&gt;↦&lt;/span&gt;&amp;nbsp;head_joint" style="rounded=1;whiteSpace=wrap;html=1;glass=0;shadow=0;arcSize=48;imageWidth=24;" vertex="1" parent="1">
          <mxGeometry x="185" y="480" width="160" height="60" as="geometry" />
        </mxCell>
        <mxCell id="R47xytBqSI23kSyQV7mt-54" value="map&amp;nbsp;&lt;span style=&quot;font-size: 14px;&quot;&gt;↦&lt;/span&gt;&amp;nbsp;odom" style="rounded=1;whiteSpace=wrap;html=1;glass=0;shadow=0;arcSize=48;imageWidth=24;" vertex="1" parent="1">
          <mxGeometry x="530" y="65" width="160" height="60" as="geometry" />
        </mxCell>
        <mxCell id="R47xytBqSI23kSyQV7mt-55" value="head_link&amp;nbsp;&lt;span style=&quot;font-size: 14px;&quot;&gt;↦&lt;/span&gt;&amp;nbsp;laser_link" style="rounded=1;whiteSpace=wrap;html=1;glass=0;shadow=0;arcSize=48;imageWidth=24;" vertex="1" parent="1">
          <mxGeometry x="185" y="620" width="160" height="60" as="geometry" />
        </mxCell>
        <mxCell id="R47xytBqSI23kSyQV7mt-56" style="edgeStyle=orthogonalEdgeStyle;rounded=0;orthogonalLoop=1;jettySize=auto;html=1;exitX=1;exitY=0.5;exitDx=0;exitDy=0;entryX=0.185;entryY=0.676;entryDx=0;entryDy=0;entryPerimeter=0;" edge="1" parent="1" source="R47xytBqSI23kSyQV7mt-8" target="R47xytBqSI23kSyQV7mt-9">
          <mxGeometry relative="1" as="geometry" />
        </mxCell>
        <mxCell id="R47xytBqSI23kSyQV7mt-65" value="scan" style="edgeLabel;html=1;align=center;verticalAlign=middle;resizable=0;points=[];" vertex="1" connectable="0" parent="R47xytBqSI23kSyQV7mt-56">
          <mxGeometry x="-0.3115" y="-1" relative="1" as="geometry">
            <mxPoint x="-2" y="-1" as="offset" />
          </mxGeometry>
        </mxCell>
        <mxCell id="R47xytBqSI23kSyQV7mt-72" style="edgeStyle=orthogonalEdgeStyle;rounded=0;orthogonalLoop=1;jettySize=auto;html=1;exitX=1;exitY=0.5;exitDx=0;exitDy=0;entryX=0.5;entryY=0;entryDx=0;entryDy=0;" edge="1" parent="1" source="R47xytBqSI23kSyQV7mt-60" target="R47xytBqSI23kSyQV7mt-63">
          <mxGeometry relative="1" as="geometry" />
        </mxCell>
        <mxCell id="R47xytBqSI23kSyQV7mt-60" value="Keyboard" style="rounded=0;whiteSpace=wrap;html=1;" vertex="1" parent="1">
          <mxGeometry x="40" y="250" width="120" height="30" as="geometry" />
        </mxCell>
        <mxCell id="R47xytBqSI23kSyQV7mt-73" style="edgeStyle=orthogonalEdgeStyle;rounded=0;orthogonalLoop=1;jettySize=auto;html=1;exitX=1;exitY=0.5;exitDx=0;exitDy=0;entryX=0;entryY=0.5;entryDx=0;entryDy=0;" edge="1" parent="1" source="R47xytBqSI23kSyQV7mt-61" target="R47xytBqSI23kSyQV7mt-62">
          <mxGeometry relative="1" as="geometry" />
        </mxCell>
        <mxCell id="R47xytBqSI23kSyQV7mt-61" value="PS5 Controller" style="rounded=0;whiteSpace=wrap;html=1;" vertex="1" parent="1">
          <mxGeometry x="40" y="365" width="120" height="30" as="geometry" />
        </mxCell>
        <mxCell id="R47xytBqSI23kSyQV7mt-74" style="edgeStyle=orthogonalEdgeStyle;rounded=0;orthogonalLoop=1;jettySize=auto;html=1;exitX=1;exitY=0.5;exitDx=0;exitDy=0;entryX=0;entryY=0.5;entryDx=0;entryDy=0;" edge="1" parent="1" source="R47xytBqSI23kSyQV7mt-62" target="R47xytBqSI23kSyQV7mt-63">
          <mxGeometry relative="1" as="geometry" />
        </mxCell>
        <mxCell id="R47xytBqSI23kSyQV7mt-95" value="joy" style="edgeLabel;html=1;align=center;verticalAlign=middle;resizable=0;points=[];" vertex="1" connectable="0" parent="R47xytBqSI23kSyQV7mt-74">
          <mxGeometry x="-0.2724" relative="1" as="geometry">
            <mxPoint as="offset" />
          </mxGeometry>
        </mxCell>
        <mxCell id="R47xytBqSI23kSyQV7mt-62" value="ps" style="rhombus;whiteSpace=wrap;html=1;" vertex="1" parent="1">
          <mxGeometry x="210" y="325" width="110" height="110" as="geometry" />
        </mxCell>
        <mxCell id="R47xytBqSI23kSyQV7mt-76" style="edgeStyle=orthogonalEdgeStyle;rounded=0;orthogonalLoop=1;jettySize=auto;html=1;exitX=1;exitY=0.5;exitDx=0;exitDy=0;entryX=0;entryY=0.5;entryDx=0;entryDy=0;" edge="1" parent="1" source="R47xytBqSI23kSyQV7mt-63" target="R47xytBqSI23kSyQV7mt-15">
          <mxGeometry relative="1" as="geometry" />
        </mxCell>
        <mxCell id="R47xytBqSI23kSyQV7mt-97" value="start/&lt;br&gt;stop" style="edgeLabel;html=1;align=center;verticalAlign=middle;resizable=0;points=[];" vertex="1" connectable="0" parent="R47xytBqSI23kSyQV7mt-76">
          <mxGeometry x="-0.2379" relative="1" as="geometry">
            <mxPoint as="offset" />
          </mxGeometry>
        </mxCell>
        <mxCell id="R47xytBqSI23kSyQV7mt-79" style="edgeStyle=orthogonalEdgeStyle;rounded=0;orthogonalLoop=1;jettySize=auto;html=1;exitX=0.5;exitY=1;exitDx=0;exitDy=0;entryX=0.264;entryY=0.227;entryDx=0;entryDy=0;entryPerimeter=0;" edge="1" parent="1" source="R47xytBqSI23kSyQV7mt-63" target="R47xytBqSI23kSyQV7mt-4">
          <mxGeometry relative="1" as="geometry">
            <Array as="points">
              <mxPoint x="435" y="595" />
            </Array>
          </mxGeometry>
        </mxCell>
        <mxCell id="R47xytBqSI23kSyQV7mt-101" value="&amp;nbsp;cmd_vel&amp;nbsp;" style="edgeLabel;html=1;align=center;verticalAlign=middle;resizable=0;points=[];" vertex="1" connectable="0" parent="R47xytBqSI23kSyQV7mt-79">
          <mxGeometry x="0.4303" y="1" relative="1" as="geometry">
            <mxPoint as="offset" />
          </mxGeometry>
        </mxCell>
        <mxCell id="R47xytBqSI23kSyQV7mt-87" style="edgeStyle=orthogonalEdgeStyle;rounded=0;orthogonalLoop=1;jettySize=auto;html=1;exitX=0.5;exitY=1;exitDx=0;exitDy=0;" edge="1" parent="1" source="R47xytBqSI23kSyQV7mt-63" target="R47xytBqSI23kSyQV7mt-83">
          <mxGeometry relative="1" as="geometry">
            <Array as="points">
              <mxPoint x="435" y="710" />
              <mxPoint x="605" y="710" />
            </Array>
          </mxGeometry>
        </mxCell>
        <mxCell id="R47xytBqSI23kSyQV7mt-102" value="&amp;nbsp;cmd_head&amp;nbsp;" style="edgeLabel;html=1;align=center;verticalAlign=middle;resizable=0;points=[];" vertex="1" connectable="0" parent="R47xytBqSI23kSyQV7mt-87">
          <mxGeometry x="0.3397" y="1" relative="1" as="geometry">
            <mxPoint as="offset" />
          </mxGeometry>
        </mxCell>
        <mxCell id="R47xytBqSI23kSyQV7mt-63" value="bb8_remote" style="rhombus;whiteSpace=wrap;html=1;" vertex="1" parent="1">
          <mxGeometry x="380" y="325" width="110" height="110" as="geometry" />
        </mxCell>
        <mxCell id="R47xytBqSI23kSyQV7mt-68" style="edgeStyle=orthogonalEdgeStyle;rounded=0;orthogonalLoop=1;jettySize=auto;html=1;exitX=1;exitY=0.5;exitDx=0;exitDy=0;entryX=0;entryY=0.5;entryDx=0;entryDy=0;" edge="1" parent="1" source="R47xytBqSI23kSyQV7mt-66" target="R47xytBqSI23kSyQV7mt-52">
          <mxGeometry relative="1" as="geometry" />
        </mxCell>
        <mxCell id="R47xytBqSI23kSyQV7mt-69" style="edgeStyle=orthogonalEdgeStyle;rounded=0;orthogonalLoop=1;jettySize=auto;html=1;exitX=1;exitY=0.5;exitDx=0;exitDy=0;entryX=0;entryY=0.5;entryDx=0;entryDy=0;" edge="1" parent="1" source="R47xytBqSI23kSyQV7mt-66" target="R47xytBqSI23kSyQV7mt-53">
          <mxGeometry relative="1" as="geometry" />
        </mxCell>
        <mxCell id="R47xytBqSI23kSyQV7mt-70" style="edgeStyle=orthogonalEdgeStyle;rounded=0;orthogonalLoop=1;jettySize=auto;html=1;exitX=1;exitY=0.5;exitDx=0;exitDy=0;entryX=0;entryY=0.5;entryDx=0;entryDy=0;" edge="1" parent="1" source="R47xytBqSI23kSyQV7mt-66" target="R47xytBqSI23kSyQV7mt-55">
          <mxGeometry relative="1" as="geometry" />
        </mxCell>
        <mxCell id="R47xytBqSI23kSyQV7mt-66" value="Static TF" style="rhombus;whiteSpace=wrap;html=1;" vertex="1" parent="1">
          <mxGeometry x="40" y="525" width="110" height="110" as="geometry" />
        </mxCell>
        <mxCell id="R47xytBqSI23kSyQV7mt-82" value="costmap_2d" style="rhombus;whiteSpace=wrap;html=1;" vertex="1" parent="1">
          <mxGeometry x="670" y="325" width="110" height="110" as="geometry" />
        </mxCell>
        <mxCell id="R47xytBqSI23kSyQV7mt-88" style="edgeStyle=orthogonalEdgeStyle;rounded=0;orthogonalLoop=1;jettySize=auto;html=1;exitX=0.5;exitY=1;exitDx=0;exitDy=0;entryX=0.5;entryY=0;entryDx=0;entryDy=0;" edge="1" parent="1" source="R47xytBqSI23kSyQV7mt-83" target="R47xytBqSI23kSyQV7mt-50">
          <mxGeometry relative="1" as="geometry" />
        </mxCell>
        <mxCell id="R47xytBqSI23kSyQV7mt-83" value="PID&lt;br&gt;Head" style="rhombus;whiteSpace=wrap;html=1;" vertex="1" parent="1">
          <mxGeometry x="550" y="740" width="110" height="110" as="geometry" />
        </mxCell>
        <mxCell id="R47xytBqSI23kSyQV7mt-92" value="octomap_server" style="rhombus;whiteSpace=wrap;html=1;" vertex="1" parent="1">
          <mxGeometry x="730" y="265" width="110" height="110" as="geometry" />
        </mxCell>
        <mxCell id="R47xytBqSI23kSyQV7mt-93" value="recovery" style="rhombus;whiteSpace=wrap;html=1;" vertex="1" parent="1">
          <mxGeometry x="730" y="385" width="110" height="110" as="geometry" />
        </mxCell>
      </root>
    </mxGraphModel>
  </diagram>
</mxfile>
